<?xml version="1.0" encoding="utf-8"?>
<!-- Generator: Adobe Illustrator 25.3.1, SVG Export Plug-In . SVG Version: 6.00 Build 0)  -->
<svg version="1.1" id="레이어_1" xmlns="http://www.w3.org/2000/svg" xmlns:xlink="http://www.w3.org/1999/xlink" x="0px"
	 y="0px" viewBox="0 0 183.3 29.6" style="enable-background:new 0 0 183.3 29.6;" xml:space="preserve">
<style type="text/css">
	.st0{fill-rule:evenodd;clip-rule:evenodd;fill:#0D0B3A;}
	.st1{fill-rule:evenodd;clip-rule:evenodd;fill:url(#SVGID_1_);}
	.st2{fill-rule:evenodd;clip-rule:evenodd;fill:url(#SVGID_2_);}
	.st3{fill-rule:evenodd;clip-rule:evenodd;fill:url(#SVGID_3_);}
	.st4{fill-rule:evenodd;clip-rule:evenodd;fill:url(#SVGID_4_);}
	.st5{fill-rule:evenodd;clip-rule:evenodd;fill:url(#SVGID_5_);}
	.st6{fill-rule:evenodd;clip-rule:evenodd;fill:url(#SVGID_6_);}
	.st7{fill-rule:evenodd;clip-rule:evenodd;fill:url(#SVGID_7_);}
	.st8{enable-background:new    ;}
	.st9{fill:#0D0B3A;}
</style>
<g>
	<path class="st0" d="M13.4,17.5c0,2.1-1.7,3.9-3.9,3.9s-3.9-1.7-3.9-3.9s1.7-3.9,3.9-3.9S13.4,15.3,13.4,17.5 M9.1,9.8
		c-4-0.1-7.4,3-7.6,7.1c0,0.2,0,0.4,0,0.7c0,4.6,3.1,7.7,7.6,7.7c1.6,0,3.1-0.5,4.3-1.5l0.4-0.4l0.7,1.4h3.2v-20h-3.9v6.5l-0.7-0.4
		c-0.3-0.1-0.5-0.3-0.8-0.4C11.3,10,10.2,9.8,9.1,9.8"/>
</g>
<path class="st0" d="M25.3,11.2l-0.5,0.6l-1.1-2.2h-3v15.4h4.7v-7.8c0-2.3,1-3.4,3.3-3.4h1.7V9.5h-1C27.8,9.4,26.3,10,25.3,11.2"/>
<path class="st0" d="M35.8,16l0.2-0.6c0.3-1.6,1.8-2.8,3.4-2.7c1.7-0.1,3.2,1,3.6,2.7l0.2,0.6H35.8z M39.4,9.5
	c-4.1-0.2-7.6,3.1-7.8,7.2c0,0.2,0,0.3,0,0.5c-0.1,4.3,3.2,7.9,7.5,8c0.2,0,0.3,0,0.5,0c3.2,0.1,6.2-1.8,7.3-4.8h-4.4
	c-1.3,1.6-3.7,1.9-5.3,0.6c-0.7-0.6-1.2-1.3-1.4-2.2l-0.1-0.5h11.5c0-0.3,0.1-0.9,0.1-1.2V17C47.2,12.6,43.9,9.5,39.4,9.5L39.4,9.5z
	"/>
<g>
	<path class="st0" d="M57,21.4c-2.1,0-3.9-1.7-3.9-3.8c0-0.1,0-0.1,0-0.2c0-2.1,1.7-3.9,3.9-3.9c2.1,0,3.9,1.7,3.9,3.9c0,0,0,0,0,0
		c0.1,2.1-1.6,3.9-3.7,3.9C57.1,21.4,57.1,21.4,57,21.4z M61.8,9.9l-0.7,1.4l-0.3-0.3c-0.3-0.2-0.6-0.4-1-0.6l-0.3-0.1
		c-1-0.4-2.1-0.7-3.2-0.7c-4.1-0.2-7.5,3-7.6,7.1c0,0.2,0,0.5,0,0.7c-0.2,4.1,2.9,7.5,6.9,7.7c0.2,0,0.5,0,0.7,0
		c1.2,0,2.4-0.3,3.5-1c0.5-0.3,0.9-0.7,1.3-1.2l0,0l0.6,1.6H65V9.9H61.8z"/>
</g>
<g>
	
		<linearGradient id="SVGID_1_" gradientUnits="userSpaceOnUse" x1="-672.1938" y1="97.4593" x2="-672.1938" y2="96.4593" gradientTransform="matrix(4.07 0 0 11.13 2825.4001 -1060.6702)">
		<stop  offset="0" style="stop-color:#A19EF6"/>
		<stop  offset="1" style="stop-color:#838CF4"/>
	</linearGradient>
	<path class="st1" d="M87.6,13.1v6.7c0,1.1,0.9,2,2,2l0,0c1.1,0,2-0.9,2-2l0,0v-9.1L87.6,13.1z"/>
</g>
<g>
	
		<linearGradient id="SVGID_2_" gradientUnits="userSpaceOnUse" x1="-822.0319" y1="112.4924" x2="-821.0119" y2="112.0424" gradientTransform="matrix(12.54 0 0 9.57 10385.4805 -1061.66)">
		<stop  offset="0" style="stop-color:#838CF4"/>
		<stop  offset="1" style="stop-color:#6975E8"/>
	</linearGradient>
	<path class="st2" d="M88.6,7.8l-8.5,4.9l-1,4.1c0.6,0.4,1.4,0.4,2,0l0,0l6.5-3.7l-1.2,0.7l3-1.8c0.7-0.4,1.5-0.5,2.2-0.2l0,0V9.6
		c0-0.6-0.2-1.1-0.6-1.5l0,0c-0.4-0.4-0.9-0.6-1.4-0.6l0,0C89.2,7.6,88.9,7.6,88.6,7.8"/>
</g>
<g>
	
		<linearGradient id="SVGID_3_" gradientUnits="userSpaceOnUse" x1="-824.4996" y1="123.0667" x2="-823.7596" y2="123.3567" gradientTransform="matrix(13 0 0 8.71 10791.3301 -1060.0701)">
		<stop  offset="0" style="stop-color:#A19EF6"/>
		<stop  offset="1" style="stop-color:#838CF4"/>
	</linearGradient>
	<path class="st3" d="M72.7,13.1l6.4,3.7c0.6,0.4,1.4,0.4,2,0l0,0l4.5-2.6c-1.7,0.2-3.3-0.2-4.8-1.1l0,0l-0.8-0.4l-7.4-4.3V13.1z"/>
</g>
<g>
	
		<linearGradient id="SVGID_4_" gradientUnits="userSpaceOnUse" x1="-732.6414" y1="91.7403" x2="-732.6414" y2="90.7403" gradientTransform="matrix(5.58 0 0 11.85 4159.4697 -1067.9303)">
		<stop  offset="0" style="stop-color:#A19EF6"/>
		<stop  offset="1" style="stop-color:#C6D6FF"/>
	</linearGradient>
	<path class="st4" d="M69.2,8.1c-0.4,0.4-0.6,0.9-0.6,1.5l0,0v7.5l2,1.1l2,1.1V11c0-0.9,0.7-1.6,1.5-1.7l0,0l-2.5-1.5
		c-0.3-0.2-0.6-0.3-1-0.3l0,0C70.1,7.5,69.6,7.7,69.2,8.1"/>
</g>
<g>
	
		<linearGradient id="SVGID_5_" gradientUnits="userSpaceOnUse" x1="-824.4992" y1="91.3111" x2="-823.4092" y2="91.8911" gradientTransform="matrix(12.98 0 0 11.81 10768.5098 -1060.3202)">
		<stop  offset="0" style="stop-color:#C6D6FF"/>
		<stop  offset="1" style="stop-color:#B3C6FF"/>
	</linearGradient>
	<path class="st5" d="M68.6,20.6c0,0.7,0.4,1.4,1,1.8l0,0l8.9,4.9c0.3,0.2,0.7,0.3,1.1,0.3l0,0c0.7,0,1.4-0.4,1.8-1l0,0
		c0.6-0.9,0.3-2.2-0.6-2.8c0,0-0.1-0.1-0.2-0.1l0,0l-3.8-2.1l0,0l-4.1-2.3l0,0l-1.2-0.7c-1.2-0.7-2.2-1.7-2.8-3l0,0L68.6,20.6z"/>
</g>
<g>
	
		<linearGradient id="SVGID_6_" gradientUnits="userSpaceOnUse" x1="-790.044" y1="217.7588" x2="-789.044" y2="217.7588" gradientTransform="matrix(8.67 0 0 4.89 6922.6602 -1058.7699)">
		<stop  offset="0" style="stop-color:#A19EF6"/>
		<stop  offset="1" style="stop-color:#838CF4"/>
	</linearGradient>
	<path class="st6" d="M73.3,5.3l-0.7,0.4l0,0l0,0l0,0l0,0c-0.1,0-0.1,0.1-0.1,0.2l0,0v0.1l0,0V6l0,0c0,0.1,0,0.1,0,0.2l0,0v0.1l0,0
		v0.1l0,0c0,0.1,0,0.1,0.1,0.2l0,0v0.1l0,0l0.1,0.1l0,0L74,7.6l1.4,0.8h0.1l0,0l0.2,0.1l0,0h0.2l0,0c0.1,0,0.3,0,0.4,0l0,0
		c0.1,0,0.2,0,0.3-0.1l0,0l2.2-1.3l1.3-0.8L81,6.8l-4.8-3.1L73.3,5.3z"/>
</g>
<g>
	
		<linearGradient id="SVGID_7_" gradientUnits="userSpaceOnUse" x1="-823.4843" y1="155.7151" x2="-822.4843" y2="155.7151" gradientTransform="matrix(12.81 0 0 6.88 10625.4902 -1066.1899)">
		<stop  offset="0" style="stop-color:#838CF4"/>
		<stop  offset="1" style="stop-color:#6975E8"/>
	</linearGradient>
	<path class="st7" d="M79.1,2l-4,2.3c1.5,0.1,3,0.6,4.2,1.5l0,0l1.6,1l2.6,1.7c0.2,0.1,0.4,0.2,0.7,0.2l0,0c0.1,0,0.3-0.1,0.4-0.1
		l0,0l2.9-1.7l0.1-0.1l0,0c0,0,0.1-0.1,0.1-0.1l0,0c0-0.1,0.1-0.1,0.1-0.2l0,0c0,0,0,0,0-0.1l0,0c0-0.2-0.1-0.4-0.3-0.5l0,0
		l-4.1-2.4L81.1,2c-0.3-0.2-0.6-0.3-1-0.3l0,0C79.8,1.7,79.4,1.8,79.1,2"/>
</g>
<g class="st8">
	<path class="st9" d="M95.3,20.8h0.9c0.2,2.2,2,3.5,4.8,3.5c2.8,0,4.7-1.3,4.7-3.4c0-2.6-2.4-3-4.8-3.4c-2.6-0.4-5.2-0.9-5.2-3.8
		c0-2.3,2.1-3.9,5.2-3.9c3.1,0,5.1,1.6,5.3,4.1h-0.8c-0.1-2.1-1.8-3.3-4.5-3.3c-2.6,0-4.4,1.2-4.4,3.1c0,2.2,2.1,2.6,4.5,3
		c2.6,0.4,5.5,1,5.5,4.2c0,2.5-2.2,4.2-5.6,4.2C97.6,25.1,95.5,23.5,95.3,20.8z"/>
	<path class="st9" d="M109.2,17.4c0-4.4,3.3-7.7,7.6-7.7c3.3,0,5.8,1.8,6.9,4.6h-0.9c-1-2.4-3.3-3.8-6-3.8c-3.8,0-6.7,2.9-6.7,6.8
		c0,3.9,2.9,6.8,6.7,6.8c2.7,0,4.9-1.4,6-3.8h0.9c-1.1,2.9-3.7,4.7-6.9,4.7C112.5,25.1,109.2,21.8,109.2,17.4z"/>
	<path class="st9" d="M139.9,16.1v8.7H139v-8.6c0-3.5-1.9-5.6-5.1-5.6c-3,0-5.6,2.6-5.6,5.6v8.6h-0.9v-20h0.9v8.6
		c1-2.1,3.2-3.6,5.8-3.6C137.6,9.7,139.9,12.2,139.9,16.1z"/>
	<path class="st9" d="M143.7,17.4c0-4.4,3.3-7.7,7.7-7.7c4.4,0,7.7,3.3,7.7,7.7s-3.3,7.7-7.7,7.7C147,25.1,143.7,21.8,143.7,17.4z
		 M158.2,17.4c0-3.9-2.9-6.8-6.8-6.8s-6.8,2.9-6.8,6.8c0,3.9,2.9,6.8,6.8,6.8C155.3,24.2,158.2,21.3,158.2,17.4z"/>
	<path class="st9" d="M161.8,17.4c0-4.4,3.3-7.7,7.7-7.7c4.4,0,7.7,3.3,7.7,7.7s-3.3,7.7-7.7,7.7C165.1,25.1,161.8,21.8,161.8,17.4z
		 M176.3,17.4c0-3.9-2.9-6.8-6.8-6.8s-6.8,2.9-6.8,6.8c0,3.9,2.9,6.8,6.8,6.8C173.4,24.2,176.3,21.3,176.3,17.4z"/>
	<path class="st9" d="M181.3,4.8h0.9v20h-0.9V4.8z"/>
</g>
</svg>
